<svg xmlns="http://www.w3.org/2000/svg" viewBox="0 0 224.67 61.33"><defs><style>.cls-1{fill:#4f6548;}.cls-2,.cls-3,.cls-4,.cls-5,.cls-6{fill:#fff;stroke:#fff;stroke-miterlimit:10;}.cls-2{stroke-width:0.84px;}.cls-3{stroke-width:0.94px;}.cls-4{stroke-width:0.85px;}.cls-5{stroke-linecap:round;stroke-width:4px;}</style></defs><title>arkéosv3</title><g id="Calque_2" data-name="Calque 2"><path class="cls-1" d="M160.94,189.93a2.39,2.39,0,0,0,.15.63q.15.45.3.93l.3.93a2.59,2.59,0,0,1,.15.57,6.77,6.77,0,0,1-.18,1.11q-.12.45-.24.81a.92.92,0,0,1-.39.39,1.82,1.82,0,0,0-.39.27q-.12.18-.09.27t-.09.21a.75.75,0,0,1-.3.18.75.75,0,0,0-.3.18,1.76,1.76,0,0,1-.66.12h-.3q-1,0-2.58-2.43a50.37,50.37,0,0,1-3.48-6.39l-.63.24-.69.24a15.9,15.9,0,0,0-2.64,0q-1.62.09-3.48.27t-3.75.45q-1.89.27-3.39.45-1,2-2.13,3.93t-2.31,3.87q-.24.12-.3-.24a1,1,0,0,0-.36-.6q-.12-.12-.42,0a.38.38,0,0,1-.48,0,1,1,0,0,1-.12-.39q-.06-.33-.12-.63l-.12-.84a.8.8,0,0,1-.48-.18,1.3,1.3,0,0,1-.66-.84.94.94,0,0,1,0-.45q0-.33.09-.81t.12-1.14a1.53,1.53,0,0,1-.36.36q-.36.24-.42,0a8.15,8.15,0,0,1-.15-1.17,3.55,3.55,0,0,1,.09-1q.42-1.26,1.71-4.59t2.79-7.95q1.5-4.62,2.79-10.23A75,75,0,0,0,139.1,155a30.24,30.24,0,0,1,5.79-.33,7.4,7.4,0,0,1,3.27.81,6.54,6.54,0,0,1,3.15.63,3.14,3.14,0,0,1,1.65,2.67q.18,1.62.57,4.47t1.29,6.81q.9,4,2.49,9a113.89,113.89,0,0,0,4.23,11.1q.06.24,0,.18a1.76,1.76,0,0,1-.24-.21l-.24-.24Q160.94,189.75,160.94,189.93Zm-18.84-8.88q1.92-.06,3.93,0t3.93.27q-1.08-2.58-2.1-5.25t-1.92-5.37q-1,2.82-1.89,5.37T142.1,181.05Z" transform="translate(-130.01 -140.88)"/><path class="cls-1" d="M191.66,170.43a11.54,11.54,0,0,1-.66,4,11.23,11.23,0,0,1-1.74,3.12,12,12,0,0,1-2.55,2.37,18.81,18.81,0,0,1-3.09,1.74,22.4,22.4,0,0,1,2.43,6.63,14.72,14.72,0,0,1,0,6.27,17,17,0,0,0-.18-3.84,20.73,20.73,0,0,0-.72-3,16.28,16.28,0,0,0-1.2-2.64q.6,2.16,1,4.14.36,1.68.57,3.39a6.61,6.61,0,0,1-.09,2.67.47.47,0,0,1-.09-.12.47.47,0,0,0-.09-.12l-.12-.12a2.28,2.28,0,0,1-.42.6l-.36.45q-.18.21-.3.21a1.16,1.16,0,0,1-.36.09l-.54.09a5.55,5.55,0,0,0-.66.18L182,196a24.48,24.48,0,0,0-2.76-6.63,54.9,54.9,0,0,0-3.84-5.61,29.25,29.25,0,0,1-3,.3q-1.38.06-2.34.06h-.36q-.12,1.38-.18,2.52t-.12,2q-.06,1-.12,1.68a3.15,3.15,0,0,1-.3.48q-.12.24-.3.54t-.42.66q-.12.24-.33.6a7.09,7.09,0,0,0-.39.78q-.24.48-.48,1a3.29,3.29,0,0,0-.42.18,2.62,2.62,0,0,0-.72.6q-.06.12-.12.27t-.18.39a2.14,2.14,0,0,0-.18.54l-.48-.06-.72,1.14-.24-.12a1.05,1.05,0,0,0-.3-.12.88.88,0,0,0-.39.45q-.15.33-.33.33-.06-.36-.12-1.8l-.15-3.6q-.09-2.16-.18-4.89t-.15-5.73a9.6,9.6,0,0,1-2.52-2.28,10.91,10.91,0,0,1-1.8-3.54q-.06-.18-.21-1a3.92,3.92,0,0,1,0-1.44q.12.6.33,1.29t.45,1.32a8.29,8.29,0,0,0,.51,1.11,2.15,2.15,0,0,0,.51.66,13.62,13.62,0,0,1-1.14-3.27,6.17,6.17,0,0,1-.06-2.55q.48,1.5,3.78,2.82-.12-3-.27-5.82t-.27-5.28a34.65,34.65,0,0,0-3.66.72,2.88,2.88,0,0,1-1.38-1.23,7.51,7.51,0,0,1-1-2.19,6.53,6.53,0,0,1-.21-2.4,2.9,2.9,0,0,1,.9-1.92,7.77,7.77,0,0,1,2.13-.93,32.9,32.9,0,0,1,4.29-1.05,53.86,53.86,0,0,1,5.73-.72,39.74,39.74,0,0,1,6.36,0,30.21,30.21,0,0,1,6.27,1.2,15.81,15.81,0,0,1,5.4,2.82,14,14,0,0,1,3.78,4.86A16.1,16.1,0,0,1,191.66,170.43ZM187,168.75a3.27,3.27,0,0,0-1-2.4,8.26,8.26,0,0,0-3.15-1.95,23.32,23.32,0,0,0-5.19-1.23,40,40,0,0,0-7.11-.24,8,8,0,0,1,.06,1V165q-.06,2.88-.18,5.79t-.3,5.73a24.68,24.68,0,0,0,5.64-.69,31.08,31.08,0,0,0,5.4-1.77,16.46,16.46,0,0,0,4.08-2.46A4.34,4.34,0,0,0,187,168.75Z" transform="translate(-130.01 -140.88)"/><path class="cls-1" d="M220.34,160.47a18.81,18.81,0,0,1-3.42,6.9,44.75,44.75,0,0,1-6.06,6.6,22.31,22.31,0,0,1,3.36,4.5,35.15,35.15,0,0,1,2.73,5.82,29.92,29.92,0,0,1,1.53,6.06,13.1,13.1,0,0,1-.18,5.22,18.29,18.29,0,0,0-.27-3.87,26,26,0,0,0-.75-3.09,15.22,15.22,0,0,0-1.14-2.7q.66,2.22,1.08,4.2.36,1.74.54,3.45a7.28,7.28,0,0,1-.12,2.73.47.47,0,0,1-.09-.12.47.47,0,0,0-.09-.12l-.12-.12a1.49,1.49,0,0,1-.36.66,4.19,4.19,0,0,1-.39.45q-.21.21-.33.21a2.15,2.15,0,0,0-.45.06l-.57.12-.66.12L214,197a31.46,31.46,0,0,0-1.65-4.56q-1.11-2.52-2.52-5T207,182.64q-1.47-2.19-2.61-3.57-1.14.72-2.19,1.35a23.38,23.38,0,0,1-2.07,1.11q-.12,1.92-.21,3.45t-.21,2.67q-.12,1.32-.18,2.4a3.15,3.15,0,0,1-.3.48q-.3.48-.72,1.26a2.38,2.38,0,0,0-.39.6q-.21.42-.39.84t-.48,1a3.29,3.29,0,0,0-.42.18,3.92,3.92,0,0,1-.42.24.91.91,0,0,0-.36.3l-.12.27q-.06.15-.18.39t-.24.54H195l-.72,1.2a.94.94,0,0,0-.24-.18.92.92,0,0,0-.36-.12.88.88,0,0,0-.39.48q-.15.36-.33.36a34.29,34.29,0,0,1-.24-3.45q-.12-2.85-.24-7t-.27-8.88q-.15-4.77-.36-9.24t-.48-8.07a43.24,43.24,0,0,0-.63-5.28.94.94,0,0,1,.21-.48,1.14,1.14,0,0,1,.69-.42,15.83,15.83,0,0,1,2.55-.36,6,6,0,0,1,3.12.63,6.16,6.16,0,0,1,2.61,2.76,12.18,12.18,0,0,1,1,6l-.12,4.32q-.06,2.16-.18,4.26,1.32-1.14,2.91-2.79a31.62,31.62,0,0,0,3.12-3.84,35.75,35.75,0,0,0,2.85-4.92,32.31,32.31,0,0,0,2.16-6,1.83,1.83,0,0,1,1.32-1,4.35,4.35,0,0,1,1.95.09,7.43,7.43,0,0,1,2.1.93,9.85,9.85,0,0,1,1.86,1.5,6.51,6.51,0,0,1,1.26,1.83A2.76,2.76,0,0,1,220.34,160.47Z" transform="translate(-130.01 -140.88)"/><path class="cls-1" d="M236.57,183.45q3.45-.9,6.93-1.5a54.38,54.38,0,0,1,6.72-.75,25.51,25.51,0,0,1,5.82.33.74.74,0,0,1-.18.42,4.51,4.51,0,0,1-.42.48q-.24.24-.54.6l-.3.72-2.28,1.08L254,185a10,10,0,0,0-1,.42,7.25,7.25,0,0,0-.87.45,6.43,6.43,0,0,0-.81.57,5.08,5.08,0,0,0-1.14,1.14,2,2,0,0,1-1,.78q-.24,0-2.52.54t-5.85,1.62q-3.57,1.08-8,2.7a88.24,88.24,0,0,0-9,3.84q-.72.36-1.56-.72a9.21,9.21,0,0,1-1.38-2.61,8.63,8.63,0,0,1-.51-3.06,2.25,2.25,0,0,1,1.17-2.13,8.34,8.34,0,0,1,1.26-.54q0-2.58,0-5.7t0-6.36q0-3.24,0-6.42t-.12-5.91q-.09-2.73-.27-4.77a21.29,21.29,0,0,0-.42-3l1.44-.42,1.53-.27a5.83,5.83,0,0,1,1.77,0q2.4-.3,5.88-.42t7-.15q3.54,0,6.6,0t4.5.06a1.33,1.33,0,0,0-.06.42v1.14a2.12,2.12,0,0,0-.66.36,5.46,5.46,0,0,0-.6.42,7.31,7.31,0,0,0-.6.54,2.67,2.67,0,0,1-.33.27l-.45.33a2.28,2.28,0,0,1-.6.42l1.2.06-2,1-.06.72q-.66.3-1.26.54a7.12,7.12,0,0,1-.93.39,5.74,5.74,0,0,0-.57.21q-.12,0-1.23.18l-2.76.45-3.69.6-4,.63q0,.36,0,.72t0,.72q-.06,1.2-.12,2.28t-.18,2.16q2-.24,4.11-.42l4.17-.33q2-.15,3.81-.18l3,0a1.87,1.87,0,0,1-.24.78l-.24.48L246.2,171l-1.86,1,.78.06-2,1.26.06.6-2.16.54-.42.72q-.6.3-1.2.54t-1,.45l-.81.33a5.48,5.48,0,0,0-.75.15q-.63.15-1.59.42l-2.07.57q-1.11.3-2.25.54-.24,2.4-.48,4.2t-.42,2.94Q233.12,184.35,236.57,183.45Zm1-42.3a8.47,8.47,0,0,0-2.1,1.23,12.41,12.41,0,0,0-2.25,2.31,13.93,13.93,0,0,0-1.89,3.42,14.11,14.11,0,0,0-.21,2,4,4,0,0,0,.33,1.8,1.9,1.9,0,0,0,1.14,1.05,3.26,3.26,0,0,0,2.16-.27q.12-.06.57-.36a15.41,15.41,0,0,1,1.38-.78q.93-.48,2.43-1.11t3.72-1.35a4.93,4.93,0,0,0,.81-3,5.26,5.26,0,0,0-.9-2.49,6.58,6.58,0,0,0-1.8-1.77,6.84,6.84,0,0,0-1.95-.93A2.66,2.66,0,0,0,237.56,141.15Z" transform="translate(-130.01 -140.88)"/><path class="cls-1" d="M347.76,153.87A6.76,6.76,0,0,1,350,156a6.46,6.46,0,0,1,.84,2.67,6.21,6.21,0,0,1-1,3.69,34.59,34.59,0,0,0-5.58.48c-2,.32-3.75.68-5.37,1.08s-3,.78-4,1.14-1.59.6-1.59.72.48.47,1.59.81,2.46.8,4.11,1.38a55.12,55.12,0,0,1,5.28,2.22,27.26,27.26,0,0,1,5.22,3.27,16.08,16.08,0,0,1,3.9,4.53,10.67,10.67,0,0,1,1.32,6,16.07,16.07,0,0,1-1.68,6.78,11.65,11.65,0,0,1-3.66,4.14,13.53,13.53,0,0,1-5.07,2,32.1,32.1,0,0,1-6,.54,11.35,11.35,0,0,1-5.64-1.41,15.66,15.66,0,0,1-6.93-7.8,9,9,0,0,1-.81-4.05q.12-1.74.3-3.15a24.1,24.1,0,0,1,.42-2.43q.24-1.14.54-2.1-.06.72-.12,1.62c0,.52-.08,1.14-.09,1.86s0,1.52,0,2.4a19.53,19.53,0,0,1,.12-2.25q.11-1.17.24-2.13l.36-2.16,1-1.08.3.72a12.92,12.92,0,0,0,1.2,7.26,9.23,9.23,0,0,0,3.9,3.84,11.86,11.86,0,0,0,5.25,1.23,23.18,23.18,0,0,0,5.37-.54,16.12,16.12,0,0,0,4.2-1.5q1.68-.93,1.74-1.65a2.15,2.15,0,0,0-1-1.8,14.27,14.27,0,0,0-2.88-1.65q-1.8-.81-4.08-1.59c-1.52-.52-3.09-1.08-4.68-1.68s-3.17-1.24-4.71-1.92a22.12,22.12,0,0,1-4.05-2.28,10.91,10.91,0,0,1-2.79-2.85,5.51,5.51,0,0,1-.93-3.51,28.27,28.27,0,0,1,.3-2.94q.18-1,.3-1.5t.36-.54a3.71,3.71,0,0,1,1.62-2.85,14.86,14.86,0,0,1,3.87-2.13,33.26,33.26,0,0,1,5-1.5c1.82-.4,3.54-.71,5.19-.93s3.06-.38,4.29-.48S347.43,153.87,347.76,153.87Z" transform="translate(-130.01 -140.88)"/><circle class="cls-1" cx="158.95" cy="32.16" r="29.17"/></g><g id="Calque_4" data-name="Calque 4"><circle class="cls-2" cx="158.95" cy="17.48" r="3.57"/><ellipse class="cls-3" cx="308.23" cy="165.59" rx="3.89" ry="3.43" transform="translate(-54.91 285.63) rotate(-76.46)"/><circle class="cls-4" cx="138.77" cy="33.11" r="2.89"/><line class="cls-5" x1="152.41" y1="42.29" x2="141.23" y2="34.76"/><line class="cls-5" x1="158.32" y1="20.68" x2="153.98" y2="33.44"/><line class="cls-5" x1="176.7" y1="27.03" x2="169.24" y2="34.49"/><path class="cls-6" d="M272.42,179.55c1.79-1.27,12.26-9.44,18.13-7.66s14.3-1.16,11.24,3.64S293.36,191.3,289,191.3,269.92,181.34,272.42,179.55Z" transform="translate(-130.01 -140.88)"/></g></svg>